<svg xmlns="http://www.w3.org/2000/svg" id="Warstwa_2" data-name="Warstwa 2" viewBox="0 0 24 24"><g id="Warstwa_1-2" data-name="Warstwa 1"><g><path d="M3.5,0C1.57,0,0,1.57,0,3.5c0,1.76,2.77,5.83,3.09,6.28.09.13.25.22.41.22s.32-.08.41-.22c.32-.46,3.09-4.52,3.09-6.28,0-1.93-1.57-3.5-3.5-3.5ZM3.5,5c-.83,0-1.5-.67-1.5-1.5s.67-1.5,1.5-1.5,1.5.67,1.5,1.5-.67,1.5-1.5,1.5Z"></path><path d="M17.5,24c-.76,0-1.46-.06-2.08-.19-.27-.06-.44-.32-.39-.59.06-.27.31-.44.59-.39.55.11,1.18.17,1.88.17.28,0,.5.22.5.5s-.22.5-.5.5ZM13.68,23.11c-.09,0-.19-.02-.27-.08-.64-.41-1.13-.93-1.51-1.6-.14-.24-.05-.55.19-.68s.55-.05.68.19c.3.53.69.94,1.18,1.25.23.15.3.46.15.69-.1.15-.26.23-.42.23ZM11.67,19.81c-.23,0-.44-.16-.49-.4-.15-.72-.22-1.47-.26-2.05-.02-.27.18-.52.46-.54.27-.02.52.18.54.46.04.55.11,1.26.25,1.93.06.27-.12.53-.39.59-.03,0-.07,0-.1,0ZM11.27,15.82c-.26,0-.48-.2-.5-.46-.07-.8-.15-1.39-.27-1.91-.06-.27.11-.54.38-.6.27-.06.54.11.6.38.13.57.22,1.2.29,2.05.02.27-.18.52-.46.54-.01,0-.03,0-.04,0ZM10.27,12c-.16,0-.32-.08-.42-.23-.32-.49-.73-.87-1.26-1.15-.24-.13-.34-.43-.21-.68.13-.24.43-.34.68-.21.67.36,1.22.86,1.63,1.49.15.23.08.54-.15.69-.08.05-.18.08-.27.08ZM6.93,10.09s-.05,0-.07,0c-.41-.06-.89-.08-1.36-.09h0c-.28,0-.5-.22-.5-.5s.24-.52.51-.5c.53,0,1.03.03,1.49.1.27.04.46.29.42.57-.04.25-.25.43-.49.43Z"></path><path d="M19.5,10c-2.48,0-4.5,2.02-4.5,4.5,0,2.28,3.65,8.55,4.07,9.25.09.15.25.25.43.25s.34-.09.43-.25c.42-.71,4.07-6.98,4.07-9.25,0-2.48-2.02-4.5-4.5-4.5ZM19.5,17c-1.38,0-2.5-1.12-2.5-2.5s1.12-2.5,2.5-2.5,2.5,1.12,2.5,2.5-1.12,2.5-2.5,2.5Z"></path></g></g></svg>