<svg xmlns="http://www.w3.org/2000/svg" id="Warstwa_2" data-name="Warstwa 2" viewBox="0 0 95.61 87.07"><g id="Warstwa_1-2" data-name="Warstwa 1"><g><path d="M68.7,36.25c1.01-.71,1.83-1.7,2.33-2.91,1.09-2.63.43-5.57-1.69-7.48-.61-.55-.95-1.31-.95-2.13s.34-1.58.95-2.13c2.12-1.91,2.78-4.85,1.69-7.48-1.09-2.64-3.64-4.24-6.48-4.1-.83.04-1.59-.26-2.17-.84-.58-.58-.88-1.35-.84-2.17.15-2.85-1.46-5.39-4.1-6.48-2.63-1.09-5.57-.43-7.48,1.69-1.1,1.22-3.16,1.22-4.26,0-1.91-2.12-4.85-2.78-7.48-1.69-2.63,1.09-4.24,3.64-4.1,6.48.04.82-.25,1.59-.84,2.17-.58.58-1.37.87-2.17.84-2.87-.16-5.39,1.46-6.48,4.1-1.09,2.63-.43,5.57,1.69,7.48.61.55.95,1.31.95,2.13s-.34,1.58-.95,2.13c-2.12,1.91-2.78,4.85-1.69,7.48.5,1.21,1.31,2.18,2.3,2.89L.59,62.57c-.78.78-.78,2.05,0,2.83.78.78,2.05.78,2.83,0l3.14-3.14v19.88c0,2.71,2.21,4.92,4.92,4.92h72.66c2.71,0,4.92-2.21,4.92-4.92v-19.88l3.14,3.14c.39.39.9.59,1.41.59s1.02-.2,1.41-.59c.78-.78.78-2.05,0-2.83l-26.32-26.32ZM28.85,18.79c-1.11-1-1.1-2.32-.73-3.23.38-.9,1.29-1.84,2.8-1.77,1.89.1,3.71-.61,5.04-1.94,1.33-1.33,2.04-3.17,1.94-5.04-.08-1.49.86-2.42,1.77-2.8.9-.37,2.23-.38,3.23.73,1.26,1.39,3.06,2.19,4.94,2.19s3.68-.8,4.94-2.19c1-1.11,2.32-1.1,3.23-.73.9.37,1.84,1.31,1.77,2.8-.09,1.88.61,3.71,1.94,5.04,1.33,1.33,3.15,2.04,5.04,1.94,1.48-.07,2.42.86,2.8,1.77.37.9.38,2.23-.73,3.23-1.39,1.26-2.19,3.06-2.19,4.94s.8,3.68,2.19,4.94c1.11,1,1.1,2.32.73,3.23-.28.67-.86,1.36-1.75,1.64-.73-.33-1.62-.2-2.23.41l-6.7,6.7-6.7-6.7c-.78-.78-2.05-.78-2.83,0l-7.64,7.64-7.18-7.18c-.09-.12-.2-.22-.31-.31l-.15-.15c-.6-.6-1.48-.73-2.21-.42-.88-.29-1.45-.96-1.72-1.63-.37-.9-.38-2.23.73-3.23,1.39-1.26,2.19-3.06,2.19-4.94s-.8-3.68-2.19-4.94ZM29.59,83.07h-3.25v-10.99h7.99v10.99h-4.75ZM45.82,83.07h-7.48v-12.99c0-1.1-.9-2-2-2h-11.99c-1.1,0-2,.9-2,2v12.99h-10.87c-.51,0-.92-.41-.92-.92v-23.88l20.08-20.08,20.08,20.08v23.89c0,.51-.41.92-.92.92h-3.98ZM54.63,83.07c.06-.3.09-.61.09-.92v-19.89l3.14,3.14c.39.39.9.59,1.41.59s1.02-.2,1.41-.59c.78-.78.78-2.05,0-2.83l-18.17-18.17,6.23-6.23,20.08,20.08v23.89c0,.51-.41.92-.92.92h-13.28ZM85.06,82.14c0,.51-.41.92-.92.92h-11.4c.06-.3.09-.61.09-.92v-19.89l3.14,3.14c.39.39.9.59,1.41.59s1.02-.2,1.41-.59c.78-.78.78-2.05,0-2.83l-19.11-19.11,5.28-5.28,20.08,20.08v23.88Z"></path><path d="M30.64,47.59c-3.98,0-7.22,3.24-7.22,7.22s3.24,7.22,7.22,7.22,7.22-3.24,7.22-7.22-3.24-7.22-7.22-7.22ZM30.64,58.03c-1.78,0-3.22-1.45-3.22-3.22s1.45-3.22,3.22-3.22,3.22,1.45,3.22,3.22-1.45,3.22-3.22,3.22Z"></path><path d="M44.04,20.65c.39.39.86.7,1.39.93.53.23,1.11.34,1.7.34h1.09c.3,0,.59.06.86.17.27.12.52.28.72.48s.37.45.49.72c.11.27.17.56.17.86s-.06.6-.17.87c-.12.27-.28.51-.49.72-.21.21-.45.37-.72.49-.27.11-.56.17-.86.17-.11,0-.33,0-.66-.02-.34-.02-.72-.04-1.15-.07-.44-.03-.89-.07-1.35-.12-.45-.05-.88-.11-1.31-.18l-.43-.08-.16,2.46.34.06c.42.08.89.14,1.39.2.49.05.97.09,1.42.12.13,0,.25.02.37.02v2h2.3v-2.02c.38-.06.73-.16,1.06-.3.56-.24,1.06-.58,1.48-1,.42-.42.76-.92,1-1.48.24-.57.37-1.18.37-1.82s-.12-1.25-.37-1.82c-.24-.56-.58-1.06-1-1.48s-.92-.76-1.48-1c-.57-.24-1.18-.37-1.82-.37h-1.09c-.27,0-.53-.05-.76-.15-.23-.1-.44-.24-.61-.41-.17-.17-.31-.38-.41-.61-.1-.23-.15-.49-.15-.76s.05-.53.15-.76c.1-.23.24-.44.41-.61.17-.17.38-.31.61-.41.23-.1.49-.15.76-.15.15,0,.4,0,.75.02.36.02.75.04,1.18.08.43.03.86.07,1.3.12.43.05.8.1,1.17.18l.44.09.16-2.48-.35-.06c-.36-.06-.78-.12-1.25-.17-.47-.05-.93-.09-1.38-.12h-.17v-2.32h-2.3v2.25c-.44.04-.86.15-1.26.32-.53.23-.99.54-1.39.93s-.7.86-.93,1.39c-.23.53-.34,1.11-.34,1.7s.12,1.17.34,1.7c.23.53.54.99.93,1.39Z"></path></g></g></svg>