<svg xmlns="http://www.w3.org/2000/svg" id="Warstwa_2" data-name="Warstwa 2" viewBox="0 0 46 46"><defs><style>      .cls-1 {        fill-rule: evenodd;      }    </style></defs><g id="Warstwa_1-2" data-name="Warstwa 1"><g><path class="cls-1" d="M42.59,40H3.41l2.29-2.29c.39-.39.39-1.02,0-1.41-.39-.39-1.02-.39-1.41,0L.29,40.29c-.39.39-.39,1.02,0,1.41l4,4c.39.39,1.02.39,1.41,0,.39-.39.39-1.02,0-1.41l-2.29-2.29h39.17l-2.29,2.29c-.39.39-.39,1.02,0,1.41.39.39,1.02.39,1.41,0l4-4c.39-.39.39-1.02,0-1.41l-4-4c-.39-.39-1.02-.39-1.41,0-.39.39-.39,1.02,0,1.41l2.29,2.29Z"></path><path class="cls-1" d="M8,23.9v11.1c0,.8.32,1.56.88,2.12.56.56,1.32.88,2.12.88h24c.8,0,1.56-.32,2.12-.88.56-.56.88-1.33.88-2.12v-11.1c.93-.19,1.82-.64,2.54-1.36,1.95-1.95,1.95-5.12,0-7.07L26.54,1.46c-1.95-1.95-5.12-1.95-7.07,0L5.46,15.46c-1.95,1.95-1.95,5.12,0,7.07.72.72,1.61,1.17,2.54,1.36ZM36,23.9c-.93-.19-1.82-.64-2.54-1.36l-10.46-10.46-10.46,10.46c-.72.72-1.61,1.17-2.54,1.36v11.1c0,.27.1.52.29.71.19.19.44.29.71.29h7v-9c0-1.66,1.34-3,3-3h4c1.66,0,3,1.34,3,3v9h7c.26,0,.52-.11.71-.29.19-.19.29-.44.29-.71v-11.1ZM26,36h-6v-9c0-.55.45-1,1-1h4c.55,0,1,.45,1,1v9ZM11.12,21.12c-1.17,1.17-3.07,1.17-4.24,0-1.17-1.17-1.17-3.07,0-4.24L20.88,2.88c1.17-1.17,3.07-1.17,4.24,0l14,14c1.17,1.17,1.17,3.07,0,4.24-1.17,1.17-3.07,1.17-4.24,0l-11.17-11.17c-.39-.39-1.02-.39-1.41,0l-11.17,11.17Z"></path></g></g></svg>