<svg xmlns="http://www.w3.org/2000/svg" id="Warstwa_2" data-name="Warstwa 2" viewBox="0 0 383.44 382.92"><g id="Warstwa_1-2" data-name="Warstwa 1"><g><g><path d="M83.09,198.36c-4.36,3.75-9.67,17.28-17.19,10.83-3.37-2.89-2.19-6.1-.33-9.26,2.64-4.49,15.13-21.49,18.62-24.8s7.18-3.17,10.53,0,16.29,20.66,18.63,24.78c4.02,7.05-1.09,13.26-8.19,9.68l-9.35-11.23v127.25h197.61c-2.64-3.16-7.74-4.97-10.42-7.92-4.33-4.78-.37-12.49,6.27-10.75l27.73,20.17c4.24,4.77,2.52,7.45-1.52,11.2-4.48,4.15-18.78,15.07-23.94,17.97-4.59,2.58-9.8,1.35-10.44-4.36-.7-6.34,9.26-9.07,12.32-13.58H87.2c-.88,0-4.12-3.24-4.12-4.12v-135.86Z"></path><g><path d="M190.89,273.21c1.74.38,1.2-.23,1.67-.96,8.92-13.86,15.24-31.31,24.2-45.4,3.21-4.99,9.92-4.08,11.78,1.59,5.44,23,12.73,45.59,18.27,68.56.6,2.47,2.15,6.79,2.29,8.96.41,6.58-8.6,9.89-11.96,3.71l-16.32-61.91c-1.43.73-2.32,2.64-3.11,3.99-6.71,11.4-12.82,27.98-20.21,38.18-3.34,4.62-7.78,4.87-11.43.45-6.45-7.81-14.19-27.26-19.75-37.14-1-1.77-2.25-4.28-3.86-5.48l-17.2,63.27c-4.6,4.5-11.84.44-11.11-5.81l20.59-76.78c1.86-5.68,8.57-6.58,11.78-1.59l24.39,46.36Z"></path><path d="M250.76,217.08h31.81c.59,0,3.22,2.28,3.71,3.02,2.32,3.53.76,8.11-3.12,9.54l-41.71.12c-10.81-3.76-2.03-22.12,3.35-28,6.98-7.65,19.44-13.16,26.21-20.2,12.65-13.17-9.02-31.29-19.49-16.5-3.12,4.41-1.25,15.37-9.91,13.71-10.44-2-3.02-19.25,1.95-24.29,19.31-19.63,52.68,1.42,41.79,27.94-5.27,12.82-21.81,18.28-30.75,27.64-1.55,1.62-3.77,4.77-3.82,7.03Z"></path></g></g><path d="M194.62,0l92.82,75.6v-27.32c0-3.74,6.35-8.74,9.87-9.59,5.1-1.23,31.22-1.26,36.74-.34,6.33,1.06,10.72,6.59,11.06,12.89l.12,71.73c.69,2.38,27.47,22.76,31.68,26.71,6.18,5.8,9.11,11.48,3.67,19.43-2.54,3.72-14.24,17.04-17.58,19.84-3.67,3.07-9.46,3.72-13.87,1.97-1.68-.67-2.27-2.35-4.06-2.3v183.77c0,3.14-5.96,10.35-9.69,10.52l-288.09-.18c-3.48-.3-9.12-7.42-9.12-10.34v-183.77c-5.35,3.63-11.42,4.81-17.03.94-2.86-1.97-15.76-16.69-18.15-20.03-1.35-1.89-1.74-3.8-3-5.61v-5.99c1.48-3.45,3.55-5.78,6.38-8.21L182.29,3.76l6.35-3.76h5.99ZM192.01,12.91L12.74,161.31c4.49,4,7.85,9.17,11.94,13.49,1.1,1.16,3.76,4.54,5.26,3.77L189.19,46.6l5.87.5,158.26,131.47,1.89-.37,14.97-17.27L192.01,12.91ZM332.35,50.9h-32.19v35.93c10.7,6.82,19.76,16.64,29.94,24.33.75.57.93,1.45,2.25,1.12v-61.38ZM332.35,370.53v-192.75L193.54,62.09l-2.25-.75L50.9,177.78v192.75h281.45Z"></path></g></g></svg>