<svg xmlns="http://www.w3.org/2000/svg" id="Warstwa_2" data-name="Warstwa 2" viewBox="0 0 93 84.2"><g id="Warstwa_1-2" data-name="Warstwa 1"><path d="M92.41,52.23c-1.2-2.52-4.29-4.28-8.47-2.53l-24.84,10.42c-3.89.69-5.59.09-7.07-.59l10.02-3.52c4.81-1.69,6.06-5.35,5.18-8.23-1.15-3.43-4.84-5.3-8.29-4.19-1.03.27-1.95.53-2.78.75-6.73,1.84-7.28,1.99-14.91-.04-5.14-1.37-10.99-2-21.07,6.44l-2.09,1.3c-.86-.96-2.24-1.24-3.41-.7l-1.69.79c-.17-.11-.34-.2-.53-.28-.85-.35-1.82-.34-2.65.06l-7.96,3.71c-1.6.75-2.3,2.66-1.55,4.26l10.49,22.48c.53,1.13,1.66,1.85,2.91,1.85.45,0,.9-.09,1.32-.27l5.95-2.56c.91-.4,1.57-1.21,1.77-2.18l4.05-1.89c1.46-.68,2.09-2.42,1.4-3.88l-.05-.09c.5.06,1,.18,1.47.38,8.53,3.86,12.66,5.58,16.46,5.91.42.04.83.05,1.24.05,3.4,0,6.53-1.21,11.76-3.24,1.31-.51,2.8-1.08,4.45-1.71.05-.02.11-.04.16-.07l25.25-13.59c4.01-2.16,4.78-6.07,3.47-8.83ZM19.97,79.03l-5.95,2.56c-.34.17-.76.03-.93-.31L2.6,58.8c-.16-.34-.01-.74.33-.9l7.96-3.72c.1-.05.21-.07.32-.07.1,0,.2.02.29.06.11.04.2.12.24.23l8.48,23.64c.13.38.08.86-.25.99h0ZM25.72,75l-3.34,1.56-8-22.29,1.37-.64c.19-.09.42,0,.51.18l9.65,20.69c.08.19,0,.41-.18.5ZM87.74,58.83l-25.18,13.55c-1.64.61-3.1,1.18-4.4,1.68-11.42,4.43-11.64,4.51-27.5-2.67-1.18-.49-2.45-.72-3.72-.66l-7.67-16.45,2.33-1.44c.05-.03.1-.07.15-.11,9.19-7.73,14.16-7.24,18.85-5.99,8.29,2.21,9.35,1.92,16.23.04.83-.23,1.74-.48,2.76-.75,2.11-.76,4.44.33,5.2,2.44,0,.01,0,.03.01.04.49,1.59-.15,3.89-3.6,5.1l-12.72,4.47s-.08.03-.11.05l-.63.29h0l-2.61,1.21c-.64.29-.91,1.05-.62,1.68.29.64,1.05.91,1.68.62l2.28-1.05c.73.15,1.44.41,2.1.76,1.78.83,3.99,1.87,9.11.94.09-.02.18-.04.26-.08l24.97-10.47c2.82-1.18,4.53-.11,5.2,1.29.8,1.67.24,4.1-2.38,5.51ZM16.46,76.15c.3.63.02,1.39-.61,1.68-.63.3-1.39.02-1.68-.61l-2.2-4.72c-.3-.64-.02-1.39.61-1.69.64-.3,1.39-.02,1.69.61l2.19,4.72ZM53.99,41.45c11.45,0,20.73-9.28,20.73-20.73C74.71,9.28,65.43,0,53.99,0c-11.45,0-20.73,9.28-20.73,20.73h0c.01,11.45,9.28,20.72,20.73,20.73h0ZM53.99,2.53c10.05,0,18.19,8.15,18.19,18.19s-8.15,18.19-18.19,18.19-18.19-8.14-18.19-18.19c.01-10.04,8.15-18.18,18.19-18.19h0ZM48.39,25.32v-.82c-.02-.7.53-1.28,1.23-1.3.7-.02,1.28.53,1.3,1.23,0,.02,0,.05,0,.07v.83c0,.85,1.31,1.8,3.07,1.8s3.07-.95,3.07-1.8v-1.53c0-1.02-.61-1.36-3.28-1.82-2.15-.36-5.39-.92-5.39-4.31v-1.54c0-2.05,1.85-3.77,4.34-4.22v-1.79c-.02-.7.53-1.28,1.23-1.3.7-.02,1.28.53,1.3,1.23,0,.02,0,.05,0,.07v1.79c2.48.44,4.33,2.17,4.33,4.22v.83c.02.7-.53,1.28-1.23,1.3-.7.02-1.28-.53-1.3-1.23,0-.02,0-.05,0-.07v-.83c0-.85-1.31-1.8-3.07-1.8s-3.07.95-3.07,1.8v1.53c0,1.02.61,1.36,3.28,1.82,2.15.37,5.39.92,5.39,4.31v1.53c0,2.05-1.85,3.77-4.33,4.22v1.79c-.02.7-.6,1.25-1.3,1.23-.67-.02-1.21-.56-1.23-1.23v-1.79c-2.48-.44-4.34-2.17-4.34-4.22h0Z"></path></g></svg>